<mxfile host="Electron" modified="2024-07-27T03:22:43.760Z" agent="Mozilla/5.0 (Macintosh; Intel Mac OS X 10_15_7) AppleWebKit/537.36 (KHTML, like Gecko) draw.io/24.6.4 Chrome/124.0.6367.207 Electron/30.0.6 Safari/537.36" etag="aNdbjQJUE92S4DMWsr__" version="24.6.4" type="device">
  <diagram name="페이지-1" id="e5qfJRpJ6KqwFt-4IvbR">
    <mxGraphModel dx="1114" dy="894" grid="1" gridSize="10" guides="1" tooltips="1" connect="1" arrows="1" fold="1" page="1" pageScale="1" pageWidth="827" pageHeight="1169" math="0" shadow="0">
      <root>
        <mxCell id="0" />
        <mxCell id="1" parent="0" />
        <mxCell id="7jWFdu__tiLEKT1S2sZX-1" value="&amp;nbsp;application.port.in" style="shape=folder;fontStyle=1;spacingTop=10;tabWidth=40;tabHeight=14;tabPosition=left;html=1;whiteSpace=wrap;verticalAlign=top;align=left;fillColor=#dae8fc;strokeColor=#6c8ebf;" vertex="1" parent="1">
          <mxGeometry x="280" y="65" width="160" height="125" as="geometry" />
        </mxCell>
        <mxCell id="7jWFdu__tiLEKT1S2sZX-2" value="&lt;div&gt;&lt;i&gt;&amp;lt;&amp;lt;interface&amp;gt;&amp;gt;&lt;/i&gt;&lt;/div&gt;Port" style="rounded=0;whiteSpace=wrap;html=1;" vertex="1" parent="1">
          <mxGeometry x="309" y="122" width="105" height="45" as="geometry" />
        </mxCell>
        <mxCell id="7jWFdu__tiLEKT1S2sZX-3" value="&amp;nbsp;adapter.in.web" style="shape=folder;fontStyle=1;spacingTop=10;tabWidth=40;tabHeight=14;tabPosition=left;html=1;whiteSpace=wrap;verticalAlign=top;align=left;fillColor=#d5e8d4;strokeColor=#82b366;" vertex="1" parent="1">
          <mxGeometry x="60" y="65" width="160" height="170" as="geometry" />
        </mxCell>
        <mxCell id="7jWFdu__tiLEKT1S2sZX-4" style="edgeStyle=orthogonalEdgeStyle;rounded=0;orthogonalLoop=1;jettySize=auto;html=1;endArrow=block;endFill=1;curved=1;" edge="1" parent="1" source="7jWFdu__tiLEKT1S2sZX-5" target="7jWFdu__tiLEKT1S2sZX-2">
          <mxGeometry relative="1" as="geometry" />
        </mxCell>
        <mxCell id="7jWFdu__tiLEKT1S2sZX-5" value="Controller" style="rounded=0;whiteSpace=wrap;html=1;" vertex="1" parent="1">
          <mxGeometry x="92.5" y="125" width="95" height="40" as="geometry" />
        </mxCell>
        <mxCell id="7jWFdu__tiLEKT1S2sZX-19" style="edgeStyle=orthogonalEdgeStyle;rounded=0;orthogonalLoop=1;jettySize=auto;html=1;entryX=0;entryY=0.75;entryDx=0;entryDy=0;endArrow=block;endFill=1;curved=1;" edge="1" parent="1" source="7jWFdu__tiLEKT1S2sZX-8" target="7jWFdu__tiLEKT1S2sZX-2">
          <mxGeometry relative="1" as="geometry" />
        </mxCell>
        <mxCell id="7jWFdu__tiLEKT1S2sZX-8" value="WebSocket&lt;div&gt;Controller&lt;/div&gt;" style="rounded=0;whiteSpace=wrap;html=1;" vertex="1" parent="1">
          <mxGeometry x="92.5" y="175" width="95" height="40" as="geometry" />
        </mxCell>
        <mxCell id="7jWFdu__tiLEKT1S2sZX-11" value="&amp;nbsp;application.service" style="shape=folder;fontStyle=1;spacingTop=10;tabWidth=40;tabHeight=14;tabPosition=left;html=1;whiteSpace=wrap;verticalAlign=top;align=left;fillColor=#dae8fc;strokeColor=#6c8ebf;" vertex="1" parent="1">
          <mxGeometry x="500" y="65" width="160" height="195" as="geometry" />
        </mxCell>
        <mxCell id="7jWFdu__tiLEKT1S2sZX-12" style="edgeStyle=orthogonalEdgeStyle;rounded=0;orthogonalLoop=1;jettySize=auto;html=1;endArrow=block;endFill=0;curved=1;" edge="1" parent="1" source="7jWFdu__tiLEKT1S2sZX-14" target="7jWFdu__tiLEKT1S2sZX-2">
          <mxGeometry relative="1" as="geometry">
            <Array as="points">
              <mxPoint x="472" y="140" />
              <mxPoint x="472" y="145" />
            </Array>
          </mxGeometry>
        </mxCell>
        <mxCell id="7jWFdu__tiLEKT1S2sZX-14" value="Service" style="rounded=0;whiteSpace=wrap;html=1;" vertex="1" parent="1">
          <mxGeometry x="529" y="122" width="105" height="45" as="geometry" />
        </mxCell>
        <mxCell id="7jWFdu__tiLEKT1S2sZX-16" value="Service" style="rounded=0;whiteSpace=wrap;html=1;" vertex="1" parent="1">
          <mxGeometry x="529" y="190" width="105" height="45" as="geometry" />
        </mxCell>
        <mxCell id="7jWFdu__tiLEKT1S2sZX-17" value="&amp;nbsp;application.port.out" style="shape=folder;fontStyle=1;spacingTop=10;tabWidth=40;tabHeight=14;tabPosition=left;html=1;whiteSpace=wrap;verticalAlign=top;align=left;fillColor=#dae8fc;strokeColor=#6c8ebf;" vertex="1" parent="1">
          <mxGeometry x="280" y="230" width="160" height="125" as="geometry" />
        </mxCell>
        <mxCell id="7jWFdu__tiLEKT1S2sZX-18" value="&lt;div&gt;&lt;i&gt;&amp;lt;&amp;lt;interface&amp;gt;&amp;gt;&lt;/i&gt;&lt;/div&gt;Port" style="rounded=0;whiteSpace=wrap;html=1;" vertex="1" parent="1">
          <mxGeometry x="309" y="287" width="105" height="45" as="geometry" />
        </mxCell>
        <mxCell id="7jWFdu__tiLEKT1S2sZX-21" style="edgeStyle=orthogonalEdgeStyle;rounded=0;orthogonalLoop=1;jettySize=auto;html=1;entryX=1;entryY=0.5;entryDx=0;entryDy=0;endArrow=block;endFill=1;curved=1;" edge="1" parent="1" source="7jWFdu__tiLEKT1S2sZX-16" target="7jWFdu__tiLEKT1S2sZX-18">
          <mxGeometry relative="1" as="geometry" />
        </mxCell>
        <mxCell id="7jWFdu__tiLEKT1S2sZX-20" style="edgeStyle=orthogonalEdgeStyle;rounded=0;orthogonalLoop=1;jettySize=auto;html=1;entryX=0;entryY=0.5;entryDx=0;entryDy=0;curved=1;endArrow=block;endFill=0;" edge="1" parent="1" source="7jWFdu__tiLEKT1S2sZX-8" target="7jWFdu__tiLEKT1S2sZX-18">
          <mxGeometry relative="1" as="geometry" />
        </mxCell>
      </root>
    </mxGraphModel>
  </diagram>
</mxfile>
